<svg xmlns="http://www.w3.org/2000/svg" width="96" height="96" viewBox="0 0 96 96" fill="none">
  <g clip-path="url(#clip0_100_94)">
    <path d="M58.36 10.36C56.84 8.84 54.8 8 52.68 8H24C19.6 8 16 11.6 16 16V80C16 84.4 19.56 88 23.96 88H72C76.4 88 80 84.4 80 80V35.32C80 33.2 79.16 31.16 77.64 29.68L58.36 10.36ZM60 72H36C33.8 72 32 70.2 32 68C32 65.8 33.8 64 36 64H60C62.2 64 64 65.8 64 68C64 70.2 62.2 72 60 72ZM60 56H36C33.8 56 32 54.2 32 52C32 49.8 33.8 48 36 48H60C62.2 48 64 49.8 64 52C64 54.2 62.2 56 60 56ZM52 32V14L74 36H56C53.8 36 52 34.2 52 32Z" fill="#272D2C"/>
  </g>
  <defs>
    <clipPath id="clip0_100_94">
      <rect width="96" height="96" fill="white"/>
    </clipPath>
  </defs>
</svg>