<svg xmlns="http://www.w3.org/2000/svg" width="96" height="96" viewBox="0 0 96 96" fill="none">
  <g clip-path="url(#clip0_100_98)">
    <path d="M48 8C25.92 8 8 25.92 8 48C8 70.08 25.92 88 48 88C70.08 88 88 70.08 88 48C88 25.92 70.08 8 48 8ZM48 68C45.8 68 44 66.2 44 64V48C44 45.8 45.8 44 48 44C50.2 44 52 45.8 52 48V64C52 66.2 50.2 68 48 68ZM52 36H44V28H52V36Z" fill="#272D2C"/>
  </g>
  <defs>
    <clipPath id="clip0_100_98">
      <rect width="96" height="96" fill="white"/>
    </clipPath>
  </defs>
</svg>