<svg xmlns="http://www.w3.org/2000/svg" width="96" height="96" viewBox="0 0 96 96" fill="none">
  <g clip-path="url(#clip0_100_102)">
    <path d="M62.0001 56H58.8401L57.7201 54.92C62.5201 49.32 65.0001 41.68 63.6401 33.56C61.7601 22.44 52.4801 13.56 41.2801 12.2C24.3601 10.12 10.1601 24.36 12.2001 41.28C13.5601 52.48 22.4401 61.76 33.5601 63.64C41.6801 65 49.3201 62.52 54.9201 57.72L56.0001 58.84V62L73.0401 79C74.6801 80.64 77.3201 80.64 78.9601 79L79.0001 78.96C80.6401 77.32 80.6401 74.68 79.0001 73.04L62.0001 56ZM38.0001 56C28.0401 56 20.0001 47.96 20.0001 38C20.0001 28.04 28.0401 20 38.0001 20C47.9601 20 56.0001 28.04 56.0001 38C56.0001 47.96 47.9601 56 38.0001 56ZM38.0001 28C36.8801 28 36.0001 28.88 36.0001 30V36H30.0001C28.8801 36 28.0001 36.88 28.0001 38C28.0001 39.12 28.8801 40 30.0001 40H36.0001V46C36.0001 47.12 36.8801 48 38.0001 48C39.1201 48 40.0001 47.12 40.0001 46V40H46.0001C47.1201 40 48.0001 39.12 48.0001 38C48.0001 36.88 47.1201 36 46.0001 36H40.0001V30C40.0001 28.88 39.1201 28 38.0001 28Z" fill="#272D2C"/>
  </g>
  <defs>
    <clipPath id="clip0_100_102">
      <rect width="96" height="96" fill="white"/>
    </clipPath>
  </defs>
</svg>