<svg xmlns="http://www.w3.org/2000/svg" width="96" height="96" viewBox="0 0 96 96" fill="none">
  <path d="M20 84C18.8667 84 17.9167 83.6167 17.15 82.85C16.3833 82.0833 16 81.1333 16 80V64C16 61.8 16.7833 59.9167 18.35 58.35C19.9167 56.7833 21.8 56 24 56H72C74.2 56 76.0833 56.7833 77.65 58.35C79.2167 59.9167 80 61.8 80 64V80C80 81.1333 79.6167 82.0833 78.85 82.85C78.0833 83.6167 77.1333 84 76 84H20ZM36 52C30.4667 52 25.75 50.05 21.85 46.15C17.95 42.25 16 37.5333 16 32C16 26.4667 17.95 21.75 21.85 17.85C25.75 13.95 30.4667 12 36 12H60C65.5333 12 70.25 13.95 74.15 17.85C78.05 21.75 80 26.4667 80 32C80 37.5333 78.05 42.25 74.15 46.15C70.25 50.05 65.5333 52 60 52H36ZM24 76H72V64H24V76ZM36 44H60C63.3333 44 66.1667 42.8333 68.5 40.5C70.8333 38.1667 72 35.3333 72 32C72 28.6667 70.8333 25.8333 68.5 23.5C66.1667 21.1667 63.3333 20 60 20H36C32.6667 20 29.8333 21.1667 27.5 23.5C25.1667 25.8333 24 28.6667 24 32C24 35.3333 25.1667 38.1667 27.5 40.5C29.8333 42.8333 32.6667 44 36 44ZM36 36C37.1333 36 38.0833 35.6167 38.85 34.85C39.6167 34.0833 40 33.1333 40 32C40 30.8667 39.6167 29.9167 38.85 29.15C38.0833 28.3833 37.1333 28 36 28C34.8667 28 33.9167 28.3833 33.15 29.15C32.3833 29.9167 32 30.8667 32 32C32 33.1333 32.3833 34.0833 33.15 34.85C33.9167 35.6167 34.8667 36 36 36ZM60 36C61.1333 36 62.0833 35.6167 62.85 34.85C63.6167 34.0833 64 33.1333 64 32C64 30.8667 63.6167 29.9167 62.85 29.15C62.0833 28.3833 61.1333 28 60 28C58.8667 28 57.9167 28.3833 57.15 29.15C56.3833 29.9167 56 30.8667 56 32C56 33.1333 56.3833 34.0833 57.15 34.85C57.9167 35.6167 58.8667 36 60 36Z" fill="#272D2C"/>
</svg>